<?xml version="1.0" encoding="utf-8"?>
<!-- Generator: Adobe Illustrator 21.0.0, SVG Export Plug-In . SVG Version: 6.00 Build 0)  -->
<svg version="1.1" id="Layer_1" xmlns="http://www.w3.org/2000/svg" xmlns:xlink="http://www.w3.org/1999/xlink" x="0px" y="0px"
	 width="1400px" height="980px" viewBox="0 0 1400 980" enable-background="new 0 0 1400 980" xml:space="preserve">
<g>
	<g>
		<g>
			<rect id="XMLID_4_" fill="#869ACF" width="1400" height="980"/>
		</g>
	</g>
	<path id="XMLID_21_" fill="#B1C0C9" d="M636.9,294.2c49.8-36,350.7,5.9,446.4,0c95.7-5.9,67.3-17.6,142.5-53.1
		c49.2-23.2,110.2-20.7,146.4-16.3v105.3H28.3v-26.6C151,308.8,594,325.2,636.9,294.2z"/>
	<rect id="XMLID_878_" x="120.1" y="163.9" fill="#C3D4CA" width="67" height="460.3"/>
	<rect id="XMLID_877_" x="729" y="413.5" fill="#C3D4CA" width="39" height="460.3"/>
	<rect id="XMLID_876_" x="1079" y="413.5" fill="#C3D4CA" width="39" height="460.3"/>
	<path id="XMLID_875_" fill="#E2E3E4" d="M915,569.6c-383.6,0-717-81.7-886.7-201.9v573.5h1343.5V528
		C1234.7,554.6,1079.4,569.6,915,569.6z"/>
	<path id="XMLID_874_" fill="#ABADB0" d="M915,588.6c-383.6,0-717-81.7-886.7-201.9v573.5h1343.5V547
		C1234.7,573.6,1079.4,588.6,915,588.6z"/>
	<g id="XMLID_869_">
		<path id="XMLID_873_" fill="#809677" d="M729,960.2V648.4c-163.7-9.6-313.4-31.6-438.8-62.9l174.1,374.7H729z"/>
		<path id="XMLID_872_" fill="#809677" d="M1108.6,648c-62.6,3.8-127.3,5.8-193.6,5.8c-51,0-101.1-1.2-150-3.5l-12.3,309.9h234
			L1108.6,648z"/>
		<path id="XMLID_871_" fill="#809677" d="M240.2,572.3c-85.2-24.2-157.1-52.9-212-84.9v472.8h385.2L240.2,572.3z"/>
		<path id="XMLID_870_" fill="#809677" d="M1148.7,645.2l-134.2,315h357.2V619.5C1301.7,630.7,1227,639.4,1148.7,645.2z"/>
	</g>
	<path id="XMLID_868_" fill="#57744B" d="M698.9,791.6c-252.6,0-485.3-30.9-670.7-82.7v251.3h1343.5V708.3
		C1186,760.5,952.5,791.6,698.9,791.6z"/>
	<g id="XMLID_861_">
		<path id="XMLID_863_" fill="#ABADB0" d="M1082,917.4H801V764.9h281V917.4z M807,911.4h269V770.9H807V911.4z"/>
	</g>
	<path id="XMLID_845_" fill="#67923D" d="M698.9,856.9c-252.6,0-485.3-18.9-670.7-50.7v154.1h1343.5V805.8
		C1186,837.8,952.5,856.9,698.9,856.9z"/>
	<g>
		<g>
			<g>
				<circle fill="#E6E7E8" cx="198.6" cy="901.1" r="56.7"/>
				<path fill="#D1D3D4" d="M235.7,858.1c3.3,7.2,5.1,15.2,5.1,23.6c0,31.3-25.4,56.7-56.7,56.7c-14.2,0-27.1-5.2-37.1-13.8
					c9,19.5,28.7,33.1,51.6,33.1c31.3,0,56.7-25.4,56.7-56.7C255.4,883.9,247.8,868.5,235.7,858.1z"/>
				<polygon points="187,921.1 178.2,894 201.3,877.2 224.3,894 215.5,921.1 				"/>
				<g>
					<path d="M176.8,866.7l11.8-21.4c-15.6,2.8-29.1,12-37.5,24.8L176.8,866.7z"/>
					<path d="M161.7,908.3l-19-16.6c-0.5,3.1-0.8,6.2-0.8,9.4c0,14.3,5.3,27.4,14,37.3L161.7,908.3z"/>
					<path d="M225.7,866.7l19.9,2.6c-7.3-10.7-18.2-18.8-30.9-22.6L225.7,866.7z"/>
					<path d="M201.3,934l-32.6,15.3c8.7,5.4,18.9,8.5,29.9,8.5c11.9,0,23-3.7,32.1-10L201.3,934z"/>
					<path d="M240.8,908.3l4.7,24.7c6.2-9.1,9.8-20.1,9.8-31.9c0-1.8-0.1-3.6-0.2-5.3L240.8,908.3z"/>
				</g>
			</g>
			<g>
				<path fill="#ECC19C" d="M504.9,745c4.8-21.5-5.9-35.4-15.2-43.2l-21-139.3l-58,9.8c0,0,21.8,106.7,60.3,159
					c-1.1,15.7,5,60.3,61.1,180.3l15.9-3C548.1,908.5,541.2,794.2,504.9,745z"/>
				<path fill="#CF9E76" d="M432.4,568.6l-21.6,3.6c0,0,21.8,106.7,60.3,159c-1.1,15.7,5,60.3,61.1,180.3l2.1-0.4L432.4,568.6z"/>
				<path fill="#ECC19C" d="M368,701.8c6-22.7,11.4-57.6,11.1-108.5H308l36.8,117.1c-4.7,10.9-7.9,27.8,5.6,44.5l4.7,137.9l16.9,7.9
					C411.2,779.1,379.9,718.9,368,701.8z"/>
				<path fill="#CF9E76" d="M379.1,593.3h-11.8v305.2l4.7,2.2c39.2-121.6,7.9-181.8-4-198.9C374,679,379.5,644.2,379.1,593.3z"/>
				<path fill="#ECC19C" d="M304.5,448.1l-28.7-11.7l-24.4-88l42.2-66.3l-27.5-36.5l-55.5,106.9c0,0,50.1,82.7,69.6,102.4l21.9,41.6
					L304.5,448.1z"/>
				<g>
					<polygon fill="#CF9E76" points="261.8,332.1 293.7,282.1 266.2,245.6 261.8,254 					"/>
					<path fill="#CF9E76" d="M275.8,436.4l-14-50.7v45.7c7.2,10.1,13.7,18.6,18.5,23.4l21.9,41.6l2.3-48.4L275.8,436.4z"/>
				</g>
				<polygon fill="#CF9E76" points="215.5,352.4 222.3,362.9 223.4,342 				"/>
				<path fill="#ECC19C" d="M449.2,448.1l28.7-11.7l24.4-88l-42.2-66.3l27.5-36.5l55.5,106.9c0,0-50.1,82.7-69.6,102.4l-21.9,41.6
					L449.2,448.1z"/>
				<g>
					<polygon fill="#CF9E76" points="492,332.1 460.1,282.1 487.6,245.6 492,254 					"/>
					<path fill="#CF9E76" d="M477.9,436.4l14-50.7v45.7c-7.2,10.1-13.7,18.6-18.5,23.4l-21.9,41.6l-20.1-41.2L477.9,436.4z"/>
				</g>
				<polygon fill="#CF9E76" points="538.3,353.3 531.5,363.8 530.4,342.9 				"/>
				<path fill="#010101" d="M427.8,424.3H324.4c0,0-44.6,73-16.3,198.8h73.3l-2.2-66l31.2,66H492L427.8,424.3z"/>
				<polygon fill="#E6E7E8" points="517.2,290 237.4,290 266.5,218.8 373.9,173.9 489.5,214.3 				"/>
				<path fill="#E6E7E8" d="M440.5,377.2c0.4-15.4,3.9-40.4,7.8-64.4H289.9l6.5,182.9h154.8C451.3,495.7,439.7,406.8,440.5,377.2z"
					/>
				<path fill="#CA6A4F" d="M289.6,302l0.8,21.7h156.3c1.1-7.3,2.3-14.6,3.5-21.7H289.6z"/>
				<path fill="#752104" d="M452,291.1c3.5-20.7,6.5-36.4,6.5-36.4l-170.2-0.1l1.3,36.5H452z"/>
				<path fill="#9C3B1D" d="M288.8,280.3l0.8,21.7h160.6c1.3-7.6,2.6-15,3.8-21.7H288.8z"/>
				<g>
					<polygon fill="#CF9E76" points="343.7,132.9 336.2,127.2 332.2,112.4 337.2,105.2 345.9,103.6 353.2,108.4 355.2,123.6 
						350.4,131.7 					"/>
					<polygon fill="#CF9E76" points="403.5,132.9 411,127.2 415,112.4 410.1,105.2 401.4,103.6 394.1,108.4 392.1,123.6 
						396.8,131.7 					"/>
				</g>
				<polygon fill="#ECC19C" points="407,210.8 373.9,227.2 340.8,210.8 346.9,129.8 400.9,129.8 				"/>
				<polygon fill="#CF9E76" points="340.8,210.8 346.9,129.8 400.9,129.8 403.2,160.4 				"/>
				<path fill="#6A330D" d="M400.1,55.9c-22.2-18-50.1,11.5-63-6c-7.6,13.4,5.1,18.6,5.1,18.6l-9.2,12l6,37.8h67.7l7.6-36.2
					L400.1,55.9z"/>
				<g>
					<path fill="#572000" d="M374.2,105.8c-17.8,0-33.1-11.6-39.3-27.9l-1.9,2.5l6,37.8h67.7l7.6-36.2l-1.7-2.2
						C406,95.2,391.3,105.8,374.2,105.8z"/>
				</g>
				<path fill="#ECC19C" d="M362.2,164.6L341.3,141l-3.4-47.1l9.4-10L347,69.3c0,0,6.9,4.9,16.2,5.2c11.2,0.3,15.4-6.7,20.9-8.2
					c4-1.1,16.2,3,16.2,3l-1.4,13.4l10.5,11.1L406,141l-20.9,23.6H362.2z"/>
				<polygon fill="#C1A797" points="407.8,116.1 396.9,125.7 394.8,140.1 385.5,128.3 359.9,128.3 351.8,140.1 348.8,125.7 
					339.5,116.4 341.3,141 362.2,164.6 385.1,164.6 406,141 				"/>
				<path fill="#A87A6B" d="M357.8,137.5c0,0,17.9-5.9,31.5,0.9L357.8,137.5z"/>
				<polygon fill="#A54122" points="326.8,539.4 314.4,565.5 317.5,623.1 332,623.1 				"/>
				<path d="M379.2,900.7l-19.4-13.3c0,0-4.9,5.9-13.7,13.2l-2.5-23.1l-13.8,2.7l6,28.2c-10.5,7.1-24.1,14.2-40.2,17.6
					c0,0-62.2,11.5-69.1,29h8.9v5.1h4.9V955h5.8v5.1h4.9V955h5.8v5.1h4.9V955h5.8v5.1h4.9V955h5.8v5.1h4.9V955h20.4
					c6-4,16.9-6.6,29.5-6.6c12.6,0,23.5,2.7,29.5,6.6h4.8v5.1h4.9V955h7.5v5.1h4.9V955h5.4C390.1,955,393.7,913.9,379.2,900.7z"/>
				<path fill="#A54122" d="M379.2,900.7l-2.3-1.6L300.4,955h3.1c6-4,16.9-6.6,29.5-6.6c7.3,0,14,0.9,19.5,2.4l30.1-45.9
					C381.6,903.3,380.5,901.8,379.2,900.7z"/>
				<path fill="#010101" d="M520.3,773c-10.7,3.8-26,8.5-39.7,10.2c8.5,28.1,24,69,51.8,128.3l15.9-3
					C548.1,908.5,543.3,828,520.3,773z"/>
				<path fill="#010101" d="M350.5,779.9l4.6,112.9l16.9,7.9c16.9-52.3,20.7-93.2,18.6-124.2C379.8,779.1,362.9,781.8,350.5,779.9z"
					/>
				<path d="M569.5,931.5c-3.6-1.2-6.9-4.6-9.9-8.9l3.2-19.2l-12.5,0.9c-3.1-8-5-14.5-5-14.5l-20.2,8.3c0,0-3.5,19.6-3.6,26.3
					c-0.2,9.3,8.9,33.7,8.9,33.7c0.6,0.2,1.1,0.3,1.6,0.5v5.4h3.6v-4.3c0.3,0.1,0.7,0.2,1,0.3v4h3.6v-5.2c1.4-0.4,2.9-0.7,4.5-0.7
					c5.8,0,10.6,3,11.7,7c1.6,0.3,3,0.6,4.5,0.9v6.7h3.6v-6c1.5,0.3,2.9,0.5,4.3,0.7v6.1h3.6v-5.6c1.5,0.2,2.9,0.3,4.3,0.4v5.2h3.6
					v-5c1.5,0,3,0,4.3,0v4.4h3.6v-4.7c1.3-0.2,2.5-0.4,3.5-0.6v3.5h3.6v-4.7c4.9-2.1,5.4-5.1,5.4-5.1
					C591.3,942,569.5,931.5,569.5,931.5z"/>
				<ellipse fill="#C2957F" cx="373.6" cy="149.2" rx="7.7" ry="3"/>
				<polygon fill="#CF9E76" points="382.3,96.8 380.8,98.7 384.1,103.3 387,101.4 391.5,100.6 396.9,94.5 				"/>
				<polygon fill="#CF9E76" points="361.4,100.6 366.5,98.7 369.9,103.3 371.9,124.4 370.7,125.7 369.7,116.6 365.6,120.9 
					356.3,100.6 				"/>
				<polygon fill="#CF9E76" points="365,96.8 366.5,98.7 363.2,103.3 360.3,101.4 355.8,100.6 350.4,94.5 				"/>
				<g>
					<polygon fill="#543E36" points="385.9,100.6 384.1,103.3 386.2,102.3 387,104 396.9,103.3 394.1,100.6 					"/>
					<polygon fill="#543E36" points="361.4,100.6 363.2,103.3 361.1,102.3 360.3,104 350.4,103.3 353,100.6 					"/>
				</g>
				<g>
					<path fill="#572000" d="M398.6,93.3h-16.7l-1.1,5.4c0,0,16.4-5.8,22.4,0L398.6,93.3z"/>
					<path fill="#572000" d="M348.7,93.3h16.7l1.1,5.4c0,0-16.4-5.8-22.4,0L348.7,93.3z"/>
				</g>
				<polygon fill="#CF9E76" points="375.6,124.4 371.9,124.4 366.5,118.3 365.6,120.9 371.2,134 376.1,134 381.6,120.9 380.8,118.6 
									"/>
				<polygon fill="#B29787" points="368.8,128.3 371.2,134 376.1,134 378.5,128.3 				"/>
			</g>
		</g>
	</g>
	<path fill="#FFFFFF" d="M0,0v980h1400V0H0z M1371.7,891.9c0,37.8-30.6,68.4-68.4,68.4H96.6c-37.8,0-68.4-30.6-68.4-68.4V88.1
		c0-37.8,30.6-68.4,68.4-68.4h1206.7c37.8,0,68.4,30.6,68.4,68.4V891.9z"/>
</g>
</svg>
